<svg width="512" height="512" xmlns="http://www.w3.org/2000/svg">

 <g>
  <title>background</title>
  <rect fill="none" id="canvas_background" height="402" width="582" y="-1" x="-1"/>
 </g>
 <g>
  <title>Layer 1</title>
  <path fill="#333333" id="svg_2" d="m46.3,444.7l419.3,0c3.9,0 7,-3.1 7,-7l0,-224.7c0,-3.9 -3.1,-7 -7,-7l-29,0l-37.3,-127.2c-1.2,-4.1 -3.9,-7.5 -7.7,-9.5c-3.8,-2 -8.1,-2.5 -12.2,-1.3l-304,89.2c-8.5,2.5 -13.3,11.4 -10.9,19.9l8.5,28.9l-26.7,0c-3.9,0 -7,3.1 -7,7l0,224.7c0,3.8 3.2,7 7,7zm31.8,-271.6c-0.3,-1.1 0.3,-2.2 1.4,-2.5l304,-89.2c0.7,-0.2 1.2,0 1.5,0.2c0.3,0.2 0.8,0.5 1,1.2l36.1,123.2l-334.4,0l-9.6,-32.9zm-24.8,46.9l29.1,0l349,0l27.2,0l0,210.7l-405.3,0l0,-210.7z" class="st0"/>
  <path fill="#333333" id="svg_3" d="m431.7,282l-8,0c-10.3,0 -19.5,-5.7 -24.1,-14.9c-1.9,-3.8 -2.9,-7.8 -2.9,-12.1l0,-8c0,-3.9 -3.1,-7 -7,-7l-267.4,0c-3.9,0 -7,3.1 -7,7l0,8c0,9.9 -5.4,19 -14.1,23.7c-3.9,2.1 -8.4,3.3 -12.9,3.3l-8,0c-3.9,0 -7,3.1 -7,7l0,72.7c0,3.9 3.1,7 7,7l8,0c14.9,0 27,12.1 27,27l0,8c0,3.9 3.1,7 7,7l267.3,0c3.9,0 7,-3.1 7,-7l0,-8c0,-14.9 12.1,-27 27,-27l8,0c3.9,0 7,-3.1 7,-7l0,-72.7c0.1,-3.9 -3.1,-7 -6.9,-7zm-7,72.7l-1,0c-22.6,0 -41,18.4 -41,41l0,1l-253.4,0l0,-1c0,-22.6 -18.4,-41 -41,-41l-1,0l0,-58.7l1,0c6.8,0 13.6,-1.7 19.6,-5c13.2,-7.2 21.4,-21 21.4,-36l0,-1l253.3,0l0,1c0,6.3 1.5,12.7 4.3,18.3c7,14 21.1,22.7 36.7,22.7l1,0l0,58.7l0.1,0z" class="st0"/>
  <path fill="#333333" id="svg_4" d="m156.1,299.1c-14.5,0 -26.3,11.8 -26.3,26.3c0,9.9 5.4,18.8 14.2,23.3c3.7,1.9 7.9,3 12.1,3c9.2,0 17.8,-4.9 22.5,-12.8c0.1,-0.1 0.1,-0.2 0.2,-0.3c2.3,-4 3.5,-8.5 3.5,-13.1c0,-14.6 -11.7,-26.4 -26.2,-26.4zm10.7,32.1c-0.1,0.1 -0.1,0.2 -0.2,0.3c-2.2,3.8 -6.2,6.1 -10.6,6.1c-2,0 -3.9,-0.5 -5.6,-1.4c-4.1,-2.1 -6.6,-6.3 -6.6,-10.9c0,-6.8 5.5,-12.3 12.3,-12.3s12.3,5.5 12.3,12.3c-0.1,2.1 -0.6,4.1 -1.6,5.9z" class="st0"/>
  <path fill="#333333" id="svg_5" d="m357.5,299.1c-14.5,0 -26.3,11.8 -26.3,26.3s11.8,26.3 26.3,26.3s26.3,-11.8 26.3,-26.3s-11.8,-26.3 -26.3,-26.3zm0,38.5c-6.8,0 -12.3,-5.5 -12.3,-12.3s5.5,-12.3 12.3,-12.3s12.3,5.5 12.3,12.3s-5.5,12.3 -12.3,12.3z" class="st0"/>
  <path fill="#333333" id="svg_6" d="m261.7,317.1l0,-22.2c3.9,0.9 7.9,2.7 11.9,5.1c1.2,0.7 2.3,1 3.5,1c3.6,0 6.5,-2.8 6.5,-6.4c0,-2.8 -1.6,-4.5 -3.5,-5.6c-5.3,-3.4 -11.1,-5.6 -18,-6.4l0,-2.5c0,-2.8 -2.2,-5 -5,-5c-2.8,0 -5.1,2.2 -5.1,5l0,2.4c-14.5,1.2 -24.3,9.7 -24.3,22.1c0,5.3 1.3,9.5 4,12.9c3.9,5 10.8,8.3 20.8,10.9l0,22.8c-6.4,-1.2 -11.7,-3.8 -17.2,-7.8c-1,-0.8 -2.4,-1.3 -3.8,-1.3c-3.6,0 -6.4,2.8 -6.4,6.4c0,2.4 1.2,4.3 3.1,5.6c7.1,5 15.1,8.1 23.8,9l0,7.2c0,2.8 2.3,5 5.1,5c2.8,0 5,-2.2 5,-5l0,-7c14.7,-1.4 24.7,-9.8 24.7,-22.6c0,-12.1 -7.5,-19.2 -25.1,-23.6zm-9.2,-2.4c-1.8,-0.6 -3.3,-1.2 -4.6,-1.8c0,0 0,0 0,0c-5.1,-2.4 -6.5,-5.1 -6.5,-9c0,-5.1 3.7,-9 11.1,-9.7l0,20.5zm9.2,37.2l0,-21.1c8.9,2.8 11.5,5.9 11.5,11c-0.1,5.5 -4.1,9.2 -11.5,10.1z" class="st0"/>
 </g>
</svg>